<?xml version="1.0" encoding="utf-8"?>
<!-- Generator: Adobe Illustrator 19.0.0, SVG Export Plug-In . SVG Version: 6.00 Build 0)  -->
<svg version="1.1" id="Layer_1" xmlns="http://www.w3.org/2000/svg" xmlns:xlink="http://www.w3.org/1999/xlink" x="0px" y="0px"
	 viewBox="0 0 90 70" style="enable-background:new 0 0 90 70;" xml:space="preserve">
<style type="text/css">
	.st0{fill:#20C4F4;}
	.st1{fill:#525E66;}
</style>
<g>
	<path class="st0" d="M28,16c0.7,0.4,1.5,0.2,1.9-0.5c1.8-3.1,4.8-5,7.9-5c4.1,0,7.4,4,7.4,9c-0.1,0.8,0.5,1.5,1.3,1.5
		c0.8,0.1,1.5-0.5,1.5-1.3c0-0.1,0-0.1,0-0.2c0-4.9,3.3-9,7.4-9c1.8,0,3.6,0.6,5,1.7c0.6,0.5,1.5,0.3,2-0.3c0.5-0.6,0.3-1.5-0.3-2
		c-1.9-1.5-4.3-2.3-6.7-2.3c-3.7,0-7,2.3-8.8,5.8c-1.8-3.5-5.1-5.8-8.8-5.8c-4.2,0-8,2.4-10.4,6.4C27.1,14.7,27.3,15.6,28,16"/>
	<path class="st1" d="M72.1,53.6l-12.3,5.1c-2.5,1-5.3,1.1-7.8,0.3l-28.8-9.5c-1.8-0.6-3.8-0.5-5.5,0.3l-1.1,0.5
		c-0.7,0.4-1,1.2-0.6,1.9c0.3,0.6,1.1,0.9,1.7,0.7l1.1-0.5c1.1-0.5,2.4-0.5,3.5-0.2l28.8,9.5c3.2,1.1,6.6,0.9,9.7-0.4l12.3-5.1
		c0.7-0.3,1.1-1.1,0.9-1.8c-0.3-0.7-1.1-1.1-1.8-0.9C72.2,53.5,72.2,53.6,72.1,53.6L72.1,53.6z"/>
	<path class="st1" d="M87.6,41L87.6,41c-1.3-2.9-4.4-4.6-7.5-3.9c0.8-2.8-0.6-5.7-3.3-6.8h0c-2.7-1.1-5.8,0.1-7.1,2.8l-4.4,9.2
		l-7.2,2.5c-1.3,0.5-2.8,0.5-4.1,0l-0.2-0.1c9-5,18.8-13.6,18.8-22.7c0-3.1-0.8-6.1-2.5-8.7c-0.4-0.6-1.3-0.8-2-0.4
		c-0.6,0.4-0.8,1.3-0.4,2c1.4,2.1,2.1,4.6,2.1,7.1c0,7.7-9.1,15.9-18.4,20.8c-2.5-1.3-4.9-2.8-7.2-4.5c-1.8-1.3-3.5-2.8-5.1-4.4
		l14.3,4.9c3,1,6.3-0.6,7.4-3.6c0.5-1.4,0.4-2.9-0.2-4.2c-0.6-1.4-1.8-2.6-3.2-3.1l-25.4-9.7l-0.6-0.2C26.1,16.2,20.5,17,16,20
		L2.5,29c-0.6,0.4-0.8,1.3-0.4,2c0.4,0.6,1.3,0.8,2,0.4l13.5-9c3.7-2.5,8.4-3.2,12.7-1.8l0.5,0.2l25.4,9.7c1.5,0.6,2.3,2.3,1.7,3.9
		c0,0,0,0.1,0,0.1c-0.6,1.4-2.2,2.1-3.7,1.6l-16.1-5.5c-2.9-1-6,0.5-7,3.4c-1,2.9,0.5,6,3.4,7L53,47.4c1.9,0.7,4.1,0.7,6,0L80.2,40
		c1.9-0.7,4,0.3,4.8,2.1c0.8,2-0.1,4.2-2,5c0,0,0,0,0,0l-11.3,4.7c-0.7,0.3-1.1,1.1-0.9,1.8c0.3,0.7,1.1,1.1,1.8,0.9
		c0,0,0.1,0,0.1-0.1L84,49.7C87.4,48.3,89,44.4,87.6,41C87.6,41,87.6,41,87.6,41L87.6,41z M33.7,35.1c0.2-0.7,0.6-1.2,1.2-1.6
		c2.2,2.6,4.7,5,7.5,7l0.5,0.4l-7.5-2.6C34.1,37.8,33.4,36.4,33.7,35.1 M72.2,34.3c0.6-1.3,2.2-1.9,3.5-1.4c1.4,0.6,2.1,2.2,1.6,3.6
		c0,0,0,0.1,0,0.1l-0.7,1.8L69,41L72.2,34.3z"/>
</g>
</svg>
