<?xml version="1.0" encoding="utf-8"?>
<!-- Generator: Adobe Illustrator 19.0.0, SVG Export Plug-In . SVG Version: 6.00 Build 0)  -->
<svg version="1.1" id="Layer_1" xmlns="http://www.w3.org/2000/svg" xmlns:xlink="http://www.w3.org/1999/xlink" x="0px" y="0px"
	 viewBox="0 0 80 70" style="enable-background:new 0 0 80 70;" xml:space="preserve">
<style type="text/css">
	.st0{fill:#535F67;}
	.st1{fill:#27C4EE;}
	.st2{font-family:'MyriadPro-Bold';}
	.st3{font-size:16px;}
</style>
<g id="XMLID_3_">
	<g id="XMLID_4_">
		<path id="XMLID_6_" class="st0" d="M39.8,67.3c-12.9,0-23.4-10.5-23.4-23.4c0-14.9,21.7-39.4,22.6-40.4l0.7-0.8l0.7,0.8
			c0.9,1,22.6,25.6,22.6,40.4C63.2,56.8,52.7,67.3,39.8,67.3z M39.8,5.7c-3.9,4.5-21.4,25.6-21.4,38.2c0,11.8,9.6,21.4,21.4,21.4
			s21.4-9.6,21.4-21.4C61.2,31.3,43.7,10.2,39.8,5.7z"/>
	</g>
</g>
<g id="XMLID_1_">
	<text id="XMLID_21_" transform="matrix(1 0 0 1 25.8332 46.8333)" class="st1 st2 st3">HDL</text>
</g>
</svg>
