<?xml version="1.0" encoding="utf-8"?>
<!-- Generator: Adobe Illustrator 19.0.0, SVG Export Plug-In . SVG Version: 6.00 Build 0)  -->
<svg version="1.1" id="Layer_1" xmlns="http://www.w3.org/2000/svg" xmlns:xlink="http://www.w3.org/1999/xlink" x="0px" y="0px"
	 viewBox="0 0 80 70" style="enable-background:new 0 0 80 70;" xml:space="preserve">
<style type="text/css">
	.st0{display:none;}
	.st1{display:inline;}
	.st2{fill:#535F67;}
	.st3{fill:#27C4EE;}
	.st4{font-family:'MyriadPro-Bold';}
	.st5{font-size:16px;}
	.st6{fill:#23B7EA;}
</style>
<g id="XMLID_2_" class="st0">
	<g id="XMLID_3_" class="st1">
		<g id="XMLID_4_">
			<path id="XMLID_6_" class="st2" d="M39.8,67.3c-12.9,0-23.4-10.5-23.4-23.4c0-14.9,21.7-39.4,22.6-40.4l0.7-0.8l0.7,0.8
				c0.9,1,22.6,25.6,22.6,40.4C63.2,56.8,52.7,67.3,39.8,67.3z M39.8,5.7c-3.9,4.5-21.4,25.6-21.4,38.2c0,11.8,9.6,21.4,21.4,21.4
				s21.4-9.6,21.4-21.4C61.2,31.3,43.7,10.2,39.8,5.7z"/>
		</g>
	</g>
	<g id="XMLID_1_" class="st1">
		<text id="XMLID_30_" transform="matrix(1 0 0 1 25.8332 46.8333)" class="st3 st4 st5">HDL</text>
	</g>
</g>
<g id="XMLID_16_">
	<g id="XMLID_134_">
		<g id="XMLID_143_">
			<g id="XMLID_144_">
				<path id="XMLID_145_" class="st6" d="M59.6,1.4H22c-2.9,0-6.7,2.5-6.7,5.1V63c0,4.1,3.9,5.6,6.7,5.6h1.3c-2.8,0-4.5-2.1-4.5-4.7
					l-0.2-48.5h-0.3V9.6c0-2.6,2.3-4.7,5.1-4.7h36.5c2.8,0,5.1,2.1,5.1,4.7V6.1C64.8,3.5,62.5,1.4,59.6,1.4L59.6,1.4z M59.6,1.4"/>
			</g>
		</g>
		<g id="XMLID_135_">
			<g id="XMLID_136_">
				<path id="XMLID_137_" class="st6" d="M59.7,15.4H18.1l0,48.5c0,2.6,2.3,4.7,5.1,4.7h36.5c2.8,0,5.1-2.1,5.1-4.7V20
					C64.8,17.5,62.5,15.4,59.7,15.4L59.7,15.4z M28.2,34.7c0-1.8,1.5-3.3,3.3-3.3h5.2v-5.2c0-1.8,1.5-3.3,3.3-3.3h2.2
					c1.8,0,3.3,1.5,3.3,3.3v5.2h5.2c1.8,0,3.3,1.5,3.3,3.3v2.2c0,1.8-1.5,3.3-3.3,3.3h-5.2v5.2c0,1.8-1.5,3.3-3.3,3.3h-2.2
					c-1.8,0-3.3-1.5-3.3-3.3v-5.2h-5.2c-1.8,0-3.3-1.5-3.3-3.3V34.7z M26.9,51.8h29.2c0.9,0,1.7,0.7,1.7,1.5c0,0.8-0.8,1.5-1.7,1.5
					H26.9c-0.9,0-1.7-0.7-1.7-1.5C25.2,52.5,25.9,51.8,26.9,51.8L26.9,51.8z M52.1,60.2H30.8c-0.9,0-1.7-0.7-1.7-1.5
					c0-0.8,0.8-1.5,1.7-1.5h21.3c0.9,0,1.7,0.7,1.7,1.5C53.8,59.6,53.1,60.2,52.1,60.2L52.1,60.2z M52.1,60.2"/>
			</g>
		</g>
	</g>
</g>
</svg>
