<?xml version="1.0" encoding="utf-8"?>
<!-- Generator: Adobe Illustrator 19.0.0, SVG Export Plug-In . SVG Version: 6.00 Build 0)  -->
<svg version="1.1" id="Layer_1" xmlns="http://www.w3.org/2000/svg" xmlns:xlink="http://www.w3.org/1999/xlink" x="0px" y="0px"
	 viewBox="0 0 50 50" style="enable-background:new 0 0 50 50;" xml:space="preserve">
<style type="text/css">
	.st0{display:none;}
	.st1{display:inline;fill:#535F67;}
	.st2{fill:#26C4F4;}
	.st3{fill:#535F67;}
</style>
<g id="XMLID_40_" class="st0">
	<path id="XMLID_2_" class="st1" d="M36.1,15c0-6.1-5-11.1-11.1-11.1S13.9,8.9,13.9,15c0,8.8,11.1,21.8,11.1,21.8S36.1,23.8,36.1,15
		L36.1,15z M19.5,14.3c0-3,2.5-5.5,5.5-5.5c3,0,5.5,2.5,5.5,5.5c0,3-2.5,5.5-5.5,5.5C22,19.8,19.5,17.4,19.5,14.3L19.5,14.3z
		 M19.5,14.3"/>
	<path id="XMLID_3_" class="st1" d="M27.7,14.3c0,1.5-1.2,2.7-2.7,2.7c-1.5,0-2.7-1.2-2.7-2.7c0-1.5,1.2-2.7,2.7-2.7
		C26.5,11.6,27.7,12.8,27.7,14.3L27.7,14.3z M27.7,14.3"/>
	<path id="XMLID_9_" class="st1" d="M31.3,32.9c-0.9,1.3-1.8,2.5-2.5,3.4c7,0.4,11.6,1.9,13.3,3.1c-2,1.3-8,3.2-17.2,3.2
		c-9.2,0-15.2-1.9-17.2-3.2c1.7-1.1,6.3-2.6,13.3-3.1c-0.7-0.9-1.6-2.1-2.5-3.4c-8.6,0.8-14.9,3.4-14.9,6.4c0,3.7,9.5,6.7,21.2,6.7
		c11.7,0,21.2-3,21.2-6.7C46.2,36.4,39.9,33.8,31.3,32.9L31.3,32.9z M31.3,32.9"/>
</g>
<g id="XMLID_1_">
	<path id="XMLID_12_" class="st2" d="M157.1-44.7h-12.5c-1.1,0-2-0.9-2-2c0-1.1,0.9-2,2-2h13.6c0.7,0,1.3,0.3,1.7,0.9l3.9,6.2
		l6-15.4c0.4-1,1.5-1.5,2.6-1.1c0.6,0.2,1,0.7,1.2,1.2l5.7,18.3l2.1-8.6c0.2-0.9,1-1.5,1.9-1.5h9.8c1.1,0,2,0.9,2,2c0,1.1-0.9,2-2,2
		h-8.3l-3.4,14c-0.2,0.9-1,1.5-1.8,1.5h-0.1c-0.9,0-1.6-0.6-1.9-1.4l-6.2-19.7L166-36.5c-0.4,1-1.5,1.5-2.5,1.1
		c-0.4-0.2-0.7-0.4-1-0.8L157.1-44.7z"/>
	<path id="XMLID_13_" class="st3" d="M211.8-63.4c-8-7.9-20.7-8.5-29.5-1.4c-8.8-7-21.4-6.4-29.5,1.4c-2.4,2.3-4.1,5.3-4.8,8.6
		c-0.2,1.1,0.5,2.1,1.6,2.3c1,0.2,2-0.5,2.3-1.5c0.5-2.5,1.8-4.8,3.7-6.6c7-6.9,18.2-7,25.4-0.2c0.8,0.7,1.9,0.7,2.7,0
		c7.2-6.8,18.4-6.6,25.4,0.2c2.7,2.6,4,5.7,3.9,9.6c-0.1,11.2-11.9,26-22.9,36.1l-1.6,1.5c-3,2.7-5,4.6-6.2,5
		c-1.2-0.4-3.3-2.2-6.2-5l-1.6-1.5c-4-3.7-13.9-13.4-19.3-24.1c-0.5-1-1.7-1.4-2.6-0.9c-1,0.5-1.4,1.7-0.9,2.6
		c5.7,11.2,16,21.3,20.2,25.2l1.6,1.5c4.1,3.8,6.2,5.7,8.6,6.1c0.2,0,0.3,0,0.5,0c2.5-0.3,4.5-2.2,8.6-6.1c0.5-0.5,1-1,1.6-1.5
		c5.6-5.2,23.9-23.3,24.1-39C217-55.9,215.3-60.1,211.8-63.4L211.8-63.4z"/>
</g>
<g id="XMLID_41_">
	<path id="XMLID_51_" class="st3" d="M25,32.5l-5.6-4.9l-16,13.7c0.6,0.6,1.4,0.9,2.2,0.9h38.8c0.9,0,1.6-0.3,2.2-0.9l-16-13.7
		L25,32.5z M25,32.5"/>
	<path id="XMLID_48_" class="st3" d="M46.6,10.7c-0.6-0.6-1.4-0.9-2.2-0.9H5.6c-0.9,0-1.6,0.3-2.2,0.9L25,29.2L46.6,10.7z
		 M46.6,10.7"/>
	<path id="XMLID_45_" class="st3" d="M2.3,12.7v26.9L18,26.3L2.3,12.7z M2.3,12.7"/>
	<path id="XMLID_42_" class="st3" d="M32,26.3l15.7,13.3V12.6L32,26.3z M32,26.3"/>
</g>
</svg>
