<?xml version="1.0" encoding="utf-8"?>
<!-- Generator: Adobe Illustrator 19.0.0, SVG Export Plug-In . SVG Version: 6.00 Build 0)  -->
<svg version="1.1" id="Layer_1" xmlns="http://www.w3.org/2000/svg" xmlns:xlink="http://www.w3.org/1999/xlink" x="0px" y="0px"
	 viewBox="0 0 80 70" style="enable-background:new 0 0 80 70;" xml:space="preserve">
<style type="text/css">
	.st0{display:none;}
	.st1{display:inline;}
	.st2{fill:#535F67;}
	.st3{fill:#27C4EE;}
	.st4{font-family:'MyriadPro-Bold';}
	.st5{font-size:16px;}
	.st6{fill:#23B7EA;}
	.st7{display:inline;fill:#23B7EA;}
	.st8{fill:#00AEEF;}
</style>
<g id="XMLID_2_" class="st0">
	<g id="XMLID_3_" class="st1">
		<g id="XMLID_4_">
			<path id="XMLID_6_" class="st2" d="M39.8,67.3c-12.9,0-23.4-10.5-23.4-23.4c0-14.9,21.7-39.4,22.6-40.4l0.7-0.8l0.7,0.8
				c0.9,1,22.6,25.6,22.6,40.4C63.2,56.8,52.7,67.3,39.8,67.3z M39.8,5.7c-3.9,4.5-21.4,25.6-21.4,38.2c0,11.8,9.6,21.4,21.4,21.4
				s21.4-9.6,21.4-21.4C61.2,31.3,43.7,10.2,39.8,5.7z"/>
		</g>
	</g>
	<g id="XMLID_1_" class="st1">
		<text id="XMLID_107_" transform="matrix(1 0 0 1 25.8332 46.8333)" class="st3 st4 st5">HDL</text>
	</g>
</g>
<g id="XMLID_16_" class="st0">
	<g id="XMLID_134_" class="st1">
		<g id="XMLID_143_">
			<g id="XMLID_144_">
				<path id="XMLID_145_" class="st6" d="M59.6,1.4H22c-2.9,0-6.7,2.5-6.7,5.1V63c0,4.1,3.9,5.6,6.7,5.6h1.3c-2.8,0-4.5-2.1-4.5-4.7
					l-0.2-48.5h-0.3V9.6c0-2.6,2.3-4.7,5.1-4.7h36.5c2.8,0,5.1,2.1,5.1,4.7V6.1C64.8,3.5,62.5,1.4,59.6,1.4L59.6,1.4z M59.6,1.4"/>
			</g>
		</g>
		<g id="XMLID_135_">
			<g id="XMLID_136_">
				<path id="XMLID_137_" class="st6" d="M59.7,15.4H18.1l0,48.5c0,2.6,2.3,4.7,5.1,4.7h36.5c2.8,0,5.1-2.1,5.1-4.7V20
					C64.8,17.5,62.5,15.4,59.7,15.4L59.7,15.4z M28.2,34.7c0-1.8,1.5-3.3,3.3-3.3h5.2v-5.2c0-1.8,1.5-3.3,3.3-3.3h2.2
					c1.8,0,3.3,1.5,3.3,3.3v5.2h5.2c1.8,0,3.3,1.5,3.3,3.3v2.2c0,1.8-1.5,3.3-3.3,3.3h-5.2v5.2c0,1.8-1.5,3.3-3.3,3.3h-2.2
					c-1.8,0-3.3-1.5-3.3-3.3v-5.2h-5.2c-1.8,0-3.3-1.5-3.3-3.3V34.7z M26.9,51.8h29.2c0.9,0,1.7,0.7,1.7,1.5c0,0.8-0.8,1.5-1.7,1.5
					H26.9c-0.9,0-1.7-0.7-1.7-1.5C25.2,52.5,25.9,51.8,26.9,51.8L26.9,51.8z M52.1,60.2H30.8c-0.9,0-1.7-0.7-1.7-1.5
					c0-0.8,0.8-1.5,1.7-1.5h21.3c0.9,0,1.7,0.7,1.7,1.5C53.8,59.6,53.1,60.2,52.1,60.2L52.1,60.2z M52.1,60.2"/>
			</g>
		</g>
	</g>
</g>
<g id="XMLID_18_" class="st0">
	<path class="st7" d="M65.6,1.8H14.4c-2.9,0-5.3,2.4-5.3,5.3v7.6c0,1.2,0.9,2.1,2.1,2.1h57.5c1.2,0,2.1-0.9,2.1-2.1V7.1
		C70.9,4.2,68.5,1.8,65.6,1.8L65.6,1.8z M65.6,1.8"/>
	<path id="XMLID_24_" class="st7" d="M63,20.9H17c-1.2,0-2.1,0.9-2.1,2.1v39.9c0,2.9,2.4,5.3,5.3,5.3h39.6c2.9,0,5.3-2.4,5.3-5.3V23
		C65.1,21.9,64.2,20.9,63,20.9z M56,53.8c0,2.3-1.8,4.1-4.1,4.1H28.1c-2.3,0-4.1-1.8-4.1-4.1V35.3c0-2.3,1.8-4.1,4.1-4.1h23.8
		c2.3,0,4.1,1.8,4.1,4.1V53.8z"/>
	<g id="XMLID_23_" class="st1">
		<g id="XMLID_83_">
			<path id="XMLID_84_" class="st6" d="M48.9,42.9h-7.2v-7.2c0-0.9-0.7-1.7-1.7-1.7c-0.9,0-1.7,0.7-1.7,1.7v7.2h-7.2
				c-0.9,0-1.7,0.7-1.7,1.7s0.7,1.7,1.7,1.7h7.2v7.2c0,0.9,0.7,1.7,1.7,1.7c0.9,0,1.7-0.7,1.7-1.7v-7.2h7.2c0.9,0,1.7-0.7,1.7-1.7
				S49.8,42.9,48.9,42.9L48.9,42.9z M48.9,42.9"/>
		</g>
	</g>
</g>
<g id="XMLID_61_">
	<g id="XMLID_26_">
		<g id="XMLID_60_">
			<path id="XMLID_28_" class="st8" d="M46.1,63.3C46.1,63.3,46.1,63.3,46.1,63.3l-19.3,3.6c-1.5,0.3-2.9,0-4.2-0.9
				c-1.2-0.8-2.1-2.1-2.3-3.6l-8.9-47.3c-0.3-1.5,0-2.9,0.9-4.2c0.8-1.2,2.1-2.1,3.6-2.3c0,0,0,0,0,0L35.2,5c3-0.6,5.9,1.4,6.5,4.5
				l8.9,47.3c0.3,1.5,0,2.9-0.9,4.2C48.9,62.2,47.6,63,46.1,63.3z M16.2,10.3c-1,0.2-1.9,0.8-2.5,1.6c-0.6,0.8-0.8,1.9-0.6,2.9
				L22,62.2c0.2,1,0.8,1.9,1.6,2.5c0.8,0.6,1.9,0.8,2.9,0.6l19.3-3.6c0,0,0,0,0,0c1-0.2,1.9-0.8,2.5-1.6c0.6-0.8,0.8-1.9,0.6-2.9
				L40,9.8c-0.4-2.1-2.4-3.5-4.5-3.1L16.2,10.3C16.2,10.3,16.2,10.3,16.2,10.3z"/>
		</g>
		<g id="XMLID_40_">
			<g id="XMLID_39_">
				<circle id="XMLID_45_" class="st8" cx="21.3" cy="17.9" r="4.2"/>
			</g>
			<g id="XMLID_42_">
				<circle id="XMLID_37_" class="st8" cx="23.7" cy="30.7" r="4.2"/>
			</g>
			<g id="XMLID_43_">
				<circle id="XMLID_36_" class="st8" cx="26.2" cy="43.5" r="4.2"/>
			</g>
			<g id="XMLID_44_">
				<circle id="XMLID_35_" class="st8" cx="28.6" cy="56.3" r="4.2"/>
			</g>
		</g>
		<g id="XMLID_46_">
			<g id="XMLID_54_">
				<circle id="XMLID_33_" class="st8" cx="33.5" cy="15.6" r="4.2"/>
			</g>
			<g id="XMLID_52_">
				<circle id="XMLID_32_" class="st8" cx="35.9" cy="28.4" r="4.2"/>
			</g>
			<g id="XMLID_48_">
				<circle id="XMLID_31_" class="st8" cx="38.3" cy="41.2" r="4.2"/>
			</g>
			<g id="XMLID_47_">
				<circle id="XMLID_27_" class="st8" cx="40.7" cy="54.1" r="4.2"/>
			</g>
		</g>
	</g>
	<g id="XMLID_55_">
		<g id="XMLID_99_">
			<circle id="XMLID_100_" class="st8" cx="46.9" cy="13.1" r="4.2"/>
		</g>
		<g id="XMLID_90_">
			<circle id="XMLID_91_" class="st8" cx="59.3" cy="13.1" r="4.2"/>
		</g>
		<g id="XMLID_88_">
			<circle id="XMLID_89_" class="st8" cx="59.3" cy="26.1" r="4.2"/>
		</g>
		<g id="XMLID_82_">
			<circle id="XMLID_87_" class="st8" cx="59.4" cy="39.2" r="4.2"/>
		</g>
		<g id="XMLID_73_">
			<circle id="XMLID_81_" class="st8" cx="59.4" cy="52.2" r="4.2"/>
		</g>
		<path id="XMLID_72_" class="st8" d="M68.5,8.5C68.5,5.5,66,3,62.9,3L43.3,3c0,0,0,0,0,0c-1.5,0-2.9,0.6-3.9,1.6
			c-0.6,0.6-1,1.3-1.3,2.1l2.1-0.3c0.1-0.2,0.3-0.5,0.4-0.6c0.7-0.7,1.7-1.1,2.7-1.1c0,0,0,0,0,0l19.7-0.1c2.1,0,3.9,1.7,3.9,3.8
			l0.1,48.2c0,1-0.4,2-1.1,2.7c-0.7,0.7-1.7,1.1-2.7,1.1c0,0,0,0,0,0l-14.8,0l0.1,1.7l14.6,0c0,0,0,0,0,0c1.5,0,2.9-0.6,3.9-1.6
			c1-1.1,1.6-2.5,1.6-3.9L68.5,8.5z"/>
		<path id="XMLID_92_" class="st8" d="M47,21.9c-1,0-2,0.4-2.7,1l1.3,7.2c0.4,0.2,0.9,0.3,1.4,0.2c2.3,0,4.2-1.9,4.2-4.2
			C51.2,23.8,49.3,21.9,47,21.9z"/>
	</g>
</g>
</svg>
