<?xml version="1.0" encoding="utf-8"?>
<!-- Generator: Adobe Illustrator 19.0.0, SVG Export Plug-In . SVG Version: 6.00 Build 0)  -->
<svg version="1.1" id="Layer_1" xmlns="http://www.w3.org/2000/svg" xmlns:xlink="http://www.w3.org/1999/xlink" x="0px" y="0px"
	 viewBox="0 0 90 80" style="enable-background:new 0 0 90 80;" xml:space="preserve">
<style type="text/css">
	.st0{display:none;}
	.st1{display:inline;fill:#535F67;}
	.st2{fill:#26C4F4;}
	.st3{fill:#535F67;}
	.st4{display:inline;}
</style>
<g id="XMLID_8_" class="st0">
	<path class="st1" d="M65.9,21.3c0-10.8-8.7-19.5-19.5-19.5s-19.5,8.7-19.5,19.5c0,15.4,19.5,38.3,19.5,38.3S65.9,36.6,65.9,21.3
		L65.9,21.3z M36.8,20.1c0-5.3,4.3-9.6,9.6-9.6c5.3,0,9.6,4.3,9.6,9.6c0,5.3-4.3,9.6-9.6,9.6C41.1,29.7,36.8,25.4,36.8,20.1
		L36.8,20.1z M36.8,20.1"/>
	<path class="st1" d="M51.1,20.1c0,2.6-2.1,4.7-4.7,4.7c-2.6,0-4.7-2.1-4.7-4.7c0-2.6,2.1-4.7,4.7-4.7C49,15.4,51.1,17.5,51.1,20.1
		L51.1,20.1z M51.1,20.1"/>
	<path class="st1" d="M57.4,52.7c-1.6,2.3-3.1,4.3-4.3,5.9C65.4,59.4,73.5,62,76.5,64c-3.5,2.3-14,5.6-30.1,5.6
		c-16.1,0-26.6-3.3-30.1-5.6c3-2,11.1-4.6,23.4-5.4c-1.2-1.6-2.7-3.6-4.3-5.9C20.2,54.2,9.2,58.7,9.2,64c0,6.5,16.7,11.8,37.2,11.8
		c20.6,0,37.2-5.3,37.2-11.8C83.6,58.7,72.6,54.2,57.4,52.7L57.4,52.7z M57.4,52.7"/>
</g>
<g id="XMLID_9_">
	<path id="XMLID_11_" class="st2" d="M177.1-29.7h-12.5c-1.1,0-2-0.9-2-2s0.9-2,2-2h13.6c0.7,0,1.3,0.3,1.7,0.9l3.9,6.2l6-15.4
		c0.4-1,1.5-1.5,2.6-1.1c0.6,0.2,1,0.7,1.2,1.2l5.7,18.3l2.1-8.6c0.2-0.9,1-1.5,1.9-1.5h9.8c1.1,0,2,0.9,2,2s-0.9,2-2,2h-8.3
		l-3.4,14c-0.2,0.9-1,1.5-1.8,1.5h-0.1c-0.9,0-1.6-0.6-1.9-1.4l-6.2-19.7L186-21.5c-0.4,1-1.5,1.5-2.5,1.1c-0.4-0.2-0.7-0.4-1-0.8
		L177.1-29.7z"/>
	<path id="XMLID_10_" class="st3" d="M231.8-48.4c-8-7.9-20.7-8.5-29.5-1.4c-8.8-7-21.4-6.4-29.5,1.4c-2.4,2.3-4.1,5.3-4.8,8.6
		c-0.2,1.1,0.5,2.1,1.6,2.3c1,0.2,2-0.5,2.3-1.5c0.5-2.5,1.8-4.8,3.7-6.6c7-6.9,18.2-7,25.4-0.2c0.8,0.7,1.9,0.7,2.7,0
		c7.2-6.8,18.4-6.6,25.4,0.2c2.7,2.6,4,5.7,3.9,9.6c-0.1,11.2-11.9,26-22.9,36.1l-1.6,1.5c-3,2.7-5,4.6-6.2,5
		c-1.2-0.4-3.3-2.2-6.2-5l-1.6-1.5c-4-3.7-13.9-13.4-19.3-24.1c-0.5-1-1.7-1.4-2.6-0.9c-1,0.5-1.4,1.7-0.9,2.6
		c5.7,11.2,16,21.3,20.2,25.2l1.6,1.5c4.1,3.8,6.2,5.7,8.6,6.1c0.2,0,0.3,0,0.5,0c2.5-0.3,4.5-2.2,8.6-6.1c0.5-0.5,1-1,1.6-1.5
		c5.6-5.2,23.9-23.3,24.1-39C237-40.9,235.3-45.1,231.8-48.4L231.8-48.4z"/>
</g>
<g id="XMLID_26_">
	<path id="XMLID_28_" class="st3" d="M71.7,49.5c-2.7-2.7-6.1-2.7-8.8,0c-2.1,2-4.1,4.1-6.2,6.2c-0.6,0.6-1,0.7-1.7,0.3
		c-1.3-0.7-2.8-1.3-4-2.1c-6-3.8-11-8.6-15.4-14c-2.2-2.7-4.2-5.6-5.5-8.9c-0.3-0.7-0.2-1.1,0.3-1.6c2.1-2,4.1-4,6.1-6.1
		c2.8-2.8,2.8-6.2,0-9c-1.6-1.6-3.2-3.2-4.8-4.9c-1.7-1.7-3.3-3.3-5-5c-2.7-2.7-6.1-2.7-8.8,0c-2.1,2-4.1,4.1-6.2,6.2
		c-2,1.9-2.9,4.1-3.2,6.8c-0.3,4.3,0.7,8.4,2.2,12.4c3.1,8.2,7.7,15.5,13.3,22.2c7.6,9.1,16.7,16.2,27.3,21.4
		c4.8,2.3,9.7,4.1,15.1,4.4c3.7,0.2,6.9-0.7,9.5-3.6c1.8-2,3.8-3.8,5.6-5.7c2.8-2.8,2.8-6.2,0-9C78.3,56.1,75,52.8,71.7,49.5
		L71.7,49.5z M71.7,49.5"/>
</g>
<g id="XMLID_23_" class="st0">
	<path id="XMLID_35_" class="st4" d="M46,52.8l-9.9-8.7L7.8,68.4c1,1,2.4,1.6,3.9,1.6h68.6c1.5,0,2.9-0.6,3.9-1.6L55.9,44.1L46,52.8
		z M46,52.8"/>
	<path id="XMLID_32_" class="st4" d="M84.2,14.3c-1-1-2.4-1.6-3.9-1.6H11.7c-1.5,0-2.9,0.6-3.9,1.6L46,47.1L84.2,14.3z M84.2,14.3"
		/>
	<path id="XMLID_29_" class="st4" d="M6,17.8v47.5l27.7-23.5L6,17.8z M6,17.8"/>
	<path id="XMLID_24_" class="st4" d="M58.4,41.8L86,65.3V17.7L58.4,41.8z M58.4,41.8"/>
</g>
</svg>
