<svg id="Layer_1" data-name="Layer 1" xmlns="http://www.w3.org/2000/svg" viewBox="0 0 512 456.12"><title>computers</title><path d="M481.09,27.94H30.91A30.94,30.94,0,0,0,0,58.85V369.67a30.94,30.94,0,0,0,30.91,30.91H185.17v22.49a37.43,37.43,0,0,1-37.39,37.39h-34a11.8,11.8,0,1,0,0,23.61H398.22a11.8,11.8,0,0,0,0-23.61h-34a37.43,37.43,0,0,1-37.39-37.39V400.58H481.09A31,31,0,0,0,512,369.67V58.85A30.94,30.94,0,0,0,481.09,27.94ZM30.91,51.54H481.09a7.31,7.31,0,0,1,7.3,7.3V284H23.61V58.85A7.31,7.31,0,0,1,30.91,51.54ZM303.22,423.07a60.67,60.67,0,0,0,12.86,37.39H195.92a60.67,60.67,0,0,0,12.86-37.39V400.58h94.45v22.49ZM481.09,377H30.91a7.31,7.31,0,0,1-7.3-7.3v-62H488.39v62A7.31,7.31,0,0,1,481.09,377Z" transform="translate(0 -27.94)"/><circle cx="256" cy="314.37" r="12.74"/><path d="M184.48,212.82a11.76,11.76,0,0,0,8.35-3.46l83.41-83.41a11.8,11.8,0,1,0-16.69-16.69l-83.41,83.41a11.8,11.8,0,0,0,8.35,20.15Z" transform="translate(0 -27.94)"/><path d="M275.76,207.51a11.8,11.8,0,0,0,16.69,0l33.23-33.23A11.8,11.8,0,0,0,309,157.59l-33.23,33.23A11.8,11.8,0,0,0,275.76,207.51Z" transform="translate(0 -27.94)"/></svg>