<svg id="Layer_1" data-name="Layer 1" xmlns="http://www.w3.org/2000/svg" xmlns:xlink="http://www.w3.org/1999/xlink" viewBox="0 0 450 782"><defs><style>.cls-1{fill:none;}.cls-2{clip-path:url(#clip-path);}.cls-3{clip-path:url(#clip-path-2);}.cls-4{fill:#f25b8a;}</style><clipPath id="clip-path" transform="translate(0.02)"><rect class="cls-1" y="391" width="449.99" height="391"/></clipPath><clipPath id="clip-path-2" transform="translate(0.02)"><rect class="cls-1" width="449.99" height="391"/></clipPath></defs><title>diamond2</title><g class="cls-2"><path d="M447,517c-97.09-129.46-90.17-120.42-91.72-121.88A15,15,0,0,0,345,391H105a15.16,15.16,0,0,0-12,6L3,517a15,15,0,0,0,.67,18.88l210,241h0a15,15,0,0,0,22.63-.06l210-241A15,15,0,0,0,447,517M165.68,541H284.31L225,719.45ZM165,511l60-80,60,80Zm160.91,0,24.29-73.07L405,511Zm-23-26.06L255,421h69.2ZM195,421l-48,63.94L125.79,421ZM99.8,437.93,124.09,511H45ZM134.06,541l53.1,159.76L48,541ZM262.82,700.76,315.93,541H402Z" transform="translate(0.02)"/></g><g class="cls-3"><path class="cls-4" d="M447,126C349.89-3.48,356.81,5.56,355.26,4.1A15,15,0,0,0,345,0H105A15.16,15.16,0,0,0,93,6L3,126a15,15,0,0,0,.67,18.88l210,241h0a15,15,0,0,0,22.63-.06l210-241A15,15,0,0,0,447,126M165.68,150H284.31L225,328.45ZM165,120l60-80,60,80Zm160.91,0L350.2,46.93,405,120ZM303,93.94,255,30h69.2ZM195,30,147,93.94,125.79,30ZM99.8,46.93,124.09,120H45ZM134.06,150l53.1,159.76L48,150ZM262.82,309.76,315.93,150H402Z" transform="translate(0.02)"/></g></svg>