<?xml version="1.0" encoding="utf-8"?>
<!-- Generator: Adobe Illustrator 21.1.0, SVG Export Plug-In . SVG Version: 6.00 Build 0)  -->
<svg version="1.1" id="Capa_1" xmlns="http://www.w3.org/2000/svg" xmlns:xlink="http://www.w3.org/1999/xlink" x="0px" y="0px"
	 viewBox="-49 141 512 512" style="enable-background:new -49 141 512 512;" xml:space="preserve">
<path d="M429,388c-97.1-129.5-90.2-120.4-91.7-121.9c-3-2.8-6.7-4.1-10.3-4.1H87c-4.6,0-9.1,2.2-12,6l-90,120
	c-4.3,5.6-4,13.6,0.7,18.9l210,241c0,0,0,0,0,0l0,0c0,0,0,0,0,0c5.9,6.7,16.5,7,22.6-0.1l210-241C432.9,401.6,433.3,393.7,429,388z
	 M147.7,412h118.6L207,590.5L147.7,412z M147,382l60-80l60,80H147z M307.9,382l24.3-73.1L387,382H307.9z M285,355.9L237,292h69.2
	L285,355.9z M177,292l-48,63.9L107.8,292H177z M81.8,308.9l24.3,73.1H27L81.8,308.9z M116.1,412l53.1,159.8L30,412H116.1z
	 M244.8,571.8L297.9,412H384L244.8,571.8z"/>
</svg>
