<svg id="Layer_1" data-name="Layer 1" xmlns="http://www.w3.org/2000/svg" viewBox="0 0 333.83 509.58"><title>fridge</title><path d="M629.15,240.13H373.92a39.32,39.32,0,0,0-39.32,39.28V683.29a39.26,39.26,0,0,0,39.32,39.32h.56a28,28,0,0,0-.56,5,22,22,0,0,0,21.87,22.05H408a22,22,0,0,0,22-22.05,20.68,20.68,0,0,0-.71-5h147.2a19,19,0,0,0-.59,5,21.91,21.91,0,0,0,21.9,22.05H610a22,22,0,0,0,21.9-22.05,20.16,20.16,0,0,0-.74-5.2,39.28,39.28,0,0,0,37.27-39.17V279.4a39.39,39.39,0,0,0-39.28-39.28ZM373.92,273.76H629.15a5.64,5.64,0,0,1,5.64,5.64V420.07H368.24V279.4a5.58,5.58,0,0,1,5.68-5.64ZM629.15,688.93H373.92a5.67,5.67,0,0,1-5.68-5.64V453.85H634.8V683.29a5.74,5.74,0,0,1-5.64,5.64Zm0,0" transform="translate(-334.61 -240.13)"/><rect x="61.63" y="75.7" width="33.78" height="49.15"/><rect x="61.63" y="241.16" width="33.78" height="74.55"/></svg>