<?xml version="1.0" encoding="utf-8"?>
<!-- Generator: Adobe Illustrator 19.0.0, SVG Export Plug-In . SVG Version: 6.00 Build 0)  -->
<svg version="1.1" id="Layer_1" xmlns="http://www.w3.org/2000/svg" xmlns:xlink="http://www.w3.org/1999/xlink" x="0px" y="0px"
	 viewBox="0 0 77.3 77.3" style="enable-background:new 0 0 77.3 77.3;" xml:space="preserve">
<g>
	<path d="M38.4-0.3C22.6-0.3,9.7,12.6,9.7,28.4c0,4.1,0.8,8.1,2.5,11.8c7.2,15.7,21,32.4,25.1,37.1c0.3,0.4,0.7,0.6,1.2,0.6
		c0.5,0,0.9-0.2,1.2-0.6c4.1-4.7,17.9-21.3,25-37.1c1.7-3.7,2.5-7.6,2.5-11.8C67.2,12.6,54.3-0.3,38.4-0.3L38.4-0.3z M38.4,43.4
		c-8.2,0-14.9-6.7-14.9-14.9c0-8.2,6.7-14.9,14.9-14.9c8.2,0,15,6.7,15,14.9C53.4,36.7,46.7,43.4,38.4,43.4L38.4,43.4z M38.4,43.4"
		/>
</g>
</svg>
