<svg id="Layer_1" data-name="Layer 1" xmlns="http://www.w3.org/2000/svg" viewBox="0 0 235.84 391.6"><title>mobile</title><path d="M617.84,665.12V334.4a30.44,30.44,0,0,0-30.4-30.4h-175A30.44,30.44,0,0,0,382,334.4V665.2a30.44,30.44,0,0,0,30.4,30.4h175a30.56,30.56,0,0,0,30.4-30.48ZM401.6,374.48H598.16V597H401.6Zm10.8-50.88h175a10.8,10.8,0,0,1,10.8,10.8v20.48H401.6V334.4a10.8,10.8,0,0,1,10.8-10.8ZM401.6,665.12V616.56H598.16v48.56a10.81,10.81,0,0,1-10.8,10.8h-175a10.8,10.8,0,0,1-10.8-10.8Zm0,0" transform="translate(-382 -304)"/><path d="M519.76,637.28H480A9.84,9.84,0,0,0,480,657h39.76a9.84,9.84,0,1,0,0-19.68Zm0,0" transform="translate(-382 -304)"/></svg>