<?xml version="1.0" encoding="utf-8"?>
<!-- Generator: Adobe Illustrator 21.1.0, SVG Export Plug-In . SVG Version: 6.00 Build 0)  -->
<svg version="1.1" id="Layer_1" xmlns="http://www.w3.org/2000/svg" xmlns:xlink="http://www.w3.org/1999/xlink" x="0px" y="0px"
	 viewBox="-49 141 512 512" style="enable-background:new -49 141 512 512;" xml:space="preserve">
<g>
	<path d="M432.1,168.9H-18.1c-17,0-30.9,13.9-30.9,30.9v310.8c0,17,13.9,30.9,30.9,30.9h154.3v22.5c0,20.6-16.8,37.4-37.4,37.4h-34
		c-6.5,0-11.8,5.3-11.8,11.8c0,6.5,5.3,11.8,11.8,11.8h284.4c6.5,0,11.8-5.3,11.8-11.8c0-6.5-5.3-11.8-11.8-11.8h-34
		c-20.6,0-37.4-16.8-37.4-37.4v-22.5h154.3c17,0,30.9-13.9,30.9-30.9V199.8C463,182.8,449.1,168.9,432.1,168.9z M-18.1,192.5h450.2
		c4,0,7.3,3.3,7.3,7.3V425H-25.4V199.8C-25.4,195.8-22.1,192.5-18.1,192.5z M254.2,564.1c0,14.1,4.8,27.1,12.9,37.4H146.9
		c8-10.3,12.9-23.3,12.9-37.4v-22.5h94.4L254.2,564.1L254.2,564.1z M432.1,518H-18.1c-4,0-7.3-3.3-7.3-7.3v-62h464.8v62
		C439.4,514.7,436.1,518,432.1,518z"/>
	<circle cx="207" cy="483.3" r="12.7"/>
	<path d="M135.5,353.8c3,0,6-1.2,8.3-3.5l83.4-83.4c4.6-4.6,4.6-12.1,0-16.7c-4.6-4.6-12.1-4.6-16.7,0l-83.4,83.4
		c-4.6,4.6-4.6,12.1,0,16.7C129.4,352.7,132.5,353.8,135.5,353.8z"/>
	<path d="M226.8,348.5c2.3,2.3,5.3,3.5,8.3,3.5c3,0,6-1.2,8.3-3.5l33.2-33.2c4.6-4.6,4.6-12.1,0-16.7c-4.6-4.6-12.1-4.6-16.7,0
		l-33.2,33.2C222.1,336.4,222.1,343.9,226.8,348.5z"/>
</g>
</svg>
