<?xml version="1.0" encoding="utf-8"?>
<!-- Generator: Adobe Illustrator 19.0.0, SVG Export Plug-In . SVG Version: 6.00 Build 0)  -->
<svg version="1.1" id="Layer_1" xmlns="http://www.w3.org/2000/svg" xmlns:xlink="http://www.w3.org/1999/xlink" x="0px" y="0px"
	 viewBox="0 0 45 30.1" style="enable-background:new 0 0 45 30.1;" xml:space="preserve">
<g>
	<g>
		<path d="M22.5,18L22.5,18c0.3,0,0.7-0.1,1-0.3l0.1,0c0,0,0,0,0.1,0l0.9-0.7L44.9,0.1C44.9,0,44.8,0,44.7,0H0.2
			C0.2,0,0.1,0,0.1,0.1l21.4,17.6C21.8,17.9,22.1,18,22.5,18L22.5,18z M0,2.4v25L15.3,15L0,2.4z M29.7,15.1L45,27.4V2.5L29.7,15.1z
			 M24.8,19.1c-0.6,0.5-1.4,0.8-2.3,0.8s-1.6-0.3-2.2-0.8l-3.5-2.9L0,29.8v0c0,0.1,0.1,0.2,0.2,0.2h44.5c0.1,0,0.2-0.1,0.2-0.2v0
			L28.2,16.3L24.8,19.1z M24.8,19.1"/>
	</g>
</g>
</svg>
