<svg id="Layer_1" data-name="Layer 1" xmlns="http://www.w3.org/2000/svg" viewBox="0 0 512 320"><title>sofa</title><path d="M480,181.33H469.33V128a32,32,0,0,0-32-32H74.67a32,32,0,0,0-32,32v53.33H32a32,32,0,0,0-32,32v128a32,32,0,0,0,32,32H42.67v32A10.67,10.67,0,0,0,53.33,416h64A10.67,10.67,0,0,0,128,405.33v-32H384v32A10.67,10.67,0,0,0,394.67,416h64a10.67,10.67,0,0,0,10.67-10.67v-32H480a32,32,0,0,0,32-32v-128A32,32,0,0,0,480,181.33Zm-405.33-64H437.33A10.68,10.68,0,0,1,448,128v55.3a31.94,31.94,0,0,0-21.33,30v32H85.33v-32A31.94,31.94,0,0,0,64,183.3V128A10.68,10.68,0,0,1,74.67,117.33ZM85.33,266.67H426.67V288H85.33Zm21.33,128H64V373.33h42.67Zm341.33,0H405.33V373.33H448Zm42.67-53.33A10.68,10.68,0,0,1,480,352H32a10.68,10.68,0,0,1-10.67-10.67v-128A10.68,10.68,0,0,1,32,202.67H53.33A10.68,10.68,0,0,1,64,213.33v85.33a10.67,10.67,0,0,0,10.67,10.67H437.33A10.67,10.67,0,0,0,448,298.67V213.33a10.68,10.68,0,0,1,10.67-10.67H480a10.68,10.68,0,0,1,10.67,10.67Z" transform="translate(0 -96)"/></svg>