<svg xmlns="http://www.w3.org/2000/svg" xmlns:xlink="http://www.w3.org/1999/xlink" preserveAspectRatio="xMidYMid" width="32" height="31" viewBox="0 0 32 31">
  <defs>
    <style>
      .cls-1 {
        fill: #000;
        fill-rule: evenodd;
      }
    </style>
  </defs>
  <path d="M31.826,0.190 C31.644,0.003 31.362,-0.050 31.123,0.059 L0.355,14.063 C0.107,14.176 -0.036,14.435 -0.001,14.703 C0.035,14.971 0.243,15.184 0.511,15.228 L14.311,17.522 L15.889,30.455 C15.923,30.724 16.130,30.941 16.400,30.986 C16.436,30.993 16.470,30.996 16.504,30.996 C16.737,30.996 16.955,30.866 17.061,30.654 L31.938,0.891 C32.054,0.658 32.010,0.377 31.826,0.190 ZM16.871,28.264 L15.487,16.918 C15.453,16.647 15.244,16.430 14.974,16.385 L2.705,14.346 L30.049,1.901 L16.871,28.264 Z" class="cls-1"/>
</svg>
